<svg xmlns="http://www.w3.org/2000/svg" width="1600" height="1000" viewBox="0 0 1600 1000">
  <defs>
    <linearGradient id="wall" x1="0" x2="0" y1="0" y2="1">
      <stop offset="0" stop-color="#8f9087"/>
      <stop offset="0.55" stop-color="#b6b2a2"/>
      <stop offset="1" stop-color="#706f66"/>
    </linearGradient>
    <linearGradient id="floor" x1="0" x2="1" y1="0" y2="1">
      <stop offset="0" stop-color="#25241f"/>
      <stop offset="1" stop-color="#11120f"/>
    </linearGradient>
    <filter id="soft" x="-20%" y="-20%" width="140%" height="140%">
      <feGaussianBlur stdDeviation="6"/>
    </filter>
  </defs>
  <rect width="1600" height="1000" fill="#1a1a17"/>
  <text x="64" y="74" font-family="Georgia, serif" font-size="44" fill="#f4efdc">Apartment 302 L3 room dressing board</text>
  <text x="64" y="116" font-family="Arial, sans-serif" font-size="22" fill="#d8c78d">One-room horror investigation: quiet domestic space, readable clues, tempting wrong ritual.</text>
  <rect x="90" y="160" width="1420" height="690" rx="8" fill="url(#wall)" stroke="#3c3a31" stroke-width="8"/>
  <path d="M90 610 L1510 610 L1510 850 L90 850 Z" fill="url(#floor)"/>
  <g stroke="#3c3a31" stroke-width="5" opacity="0.65">
    <path d="M120 665 H1480"/><path d="M120 722 H1480"/><path d="M120 780 H1480"/><path d="M180 610 L120 850"/><path d="M480 610 L420 850"/><path d="M820 610 L760 850"/><path d="M1160 610 L1100 850"/>
  </g>
  <rect x="180" y="250" width="230" height="250" rx="8" fill="#d9dccf" stroke="#5d655e" stroke-width="8"/>
  <line x1="295" y1="250" x2="295" y2="500" stroke="#5d655e" stroke-width="6"/>
  <line x1="180" y1="375" x2="410" y2="375" stroke="#5d655e" stroke-width="6"/>
  <rect x="300" y="365" width="72" height="24" rx="5" fill="#3c3a31" stroke="#a98f45" stroke-width="3"/>
  <path d="M355 368 L420 334" stroke="#25241f" stroke-width="8" stroke-linecap="round"/>
  <text x="160" y="530" font-family="Arial, sans-serif" font-size="22" fill="#11120f">false lead: latch</text>
  <g transform="translate(600 540)">
    <ellipse cx="0" cy="-130" rx="190" ry="84" fill="none" stroke="#a98f45" stroke-width="6" opacity="0.75"/>
    <ellipse cx="-118" cy="-162" rx="16" ry="24" fill="#e8e2d3" transform="rotate(-25 -118 -162)"/><ellipse cx="-32" cy="-190" rx="16" ry="24" fill="#e8e2d3"/><ellipse cx="70" cy="-180" rx="16" ry="24" fill="#e8e2d3" transform="rotate(16 70 -180)"/><ellipse cx="142" cy="-138" rx="16" ry="24" fill="#e8e2d3" transform="rotate(34 142 -138)"/>
    <path d="M-220 40 C-116 -24 118 -24 220 40" fill="none" stroke="#a98f45" stroke-width="10" stroke-linecap="round"/>
    <rect x="-170" y="36" width="340" height="80" rx="8" fill="#3c3a31" stroke="#e8e2d3" stroke-width="4"/>
    <path d="M-190 46 L-164 160 M190 46 L164 160" stroke="#a98f45" stroke-width="9" stroke-linecap="round"/>
  </g>
  <text x="454" y="720" font-family="Arial, sans-serif" font-size="24" fill="#f4efdc">true clue: cradle halo handprints</text>
  <g transform="translate(975 430)">
    <circle cx="0" cy="0" r="138" fill="none" stroke="#a98f45" stroke-width="4" stroke-dasharray="3 13"/>
    <g fill="#efe7c8" stroke="#a98f45" stroke-width="3">
      <rect x="-30" y="-188" width="60" height="104" rx="4"/><rect x="118" y="-122" width="60" height="104" rx="4" transform="rotate(45 148 -70)"/><rect x="84" y="118" width="60" height="104" rx="4" transform="rotate(135 114 170)"/><rect x="-30" y="84" width="60" height="104" rx="4"/><rect x="-178" y="-122" width="60" height="104" rx="4" transform="rotate(-45 -148 -70)"/>
    </g>
  </g>
  <text x="845" y="620" font-family="Arial, sans-serif" font-size="24" fill="#f4efdc">true clue: card crown circle</text>
  <g transform="translate(1220 310)">
    <rect x="-88" y="-62" width="176" height="124" rx="16" fill="#d8d0bd" stroke="#8f9087" stroke-width="6"/>
    <rect x="-56" y="-28" width="112" height="46" rx="6" fill="#25241f" stroke="#a98f45" stroke-width="3"/>
    <path d="M-45 -3 C-26 -36 -8 28 12 -2 S44 -22 54 0" fill="none" stroke="#e8e2d3" stroke-width="4"/>
    <path d="M88 -52 L140 -110" stroke="#8f9087" stroke-width="6" stroke-linecap="round"/>
    <g stroke="#f4efdc" stroke-width="3" opacity="0.45"><path d="M-150 -10 C-210 -70 -210 70 -150 20"/><path d="M150 -10 C210 -70 210 70 150 20"/></g>
  </g>
  <text x="1100" y="452" font-family="Arial, sans-serif" font-size="24" fill="#f4efdc">true clue: reversed hymn</text>
  <g transform="translate(610 760)">
    <ellipse cx="0" cy="0" rx="190" ry="78" fill="none" stroke="#e8e2d3" stroke-width="7" stroke-dasharray="22 16"/>
    <ellipse cx="0" cy="0" rx="130" ry="48" fill="none" stroke="#a98f45" stroke-width="4"/>
    <circle cx="0" cy="0" r="24" fill="none" stroke="#a98f45" stroke-width="6"/>
  </g>
  <text x="406" y="904" font-family="Arial, sans-serif" font-size="24" fill="#f4efdc">correct ritual: nursery floor sigil</text>
  <g transform="translate(1260 704)">
    <rect x="-82" y="-124" width="164" height="248" rx="18" fill="#393d3d" stroke="#a98f45" stroke-width="6"/>
    <rect x="-58" y="-96" width="116" height="194" rx="12" fill="#71817d" opacity="0.6"/>
    <circle cx="0" cy="0" r="164" fill="none" stroke="#e8e2d3" stroke-width="4" stroke-dasharray="10 12"/>
  </g>
  <text x="1110" y="904" font-family="Arial, sans-serif" font-size="24" fill="#f4efdc">wrong ritual: mirror circle</text>
  <g filter="url(#soft)" opacity="0.35"><ellipse cx="610" cy="765" rx="260" ry="90" fill="#e8e2d3"/><ellipse cx="1260" cy="704" rx="230" ry="230" fill="#8f9087"/></g>
  <rect x="64" y="880" width="250" height="58" rx="8" fill="#11120f" stroke="#a98f45" stroke-width="2"/>
  <text x="88" y="918" font-family="Arial, sans-serif" font-size="24" fill="#d8c78d">Rule: evidence wins over drama.</text>
</svg>
