<svg width="1600" height="980" viewBox="0 0 1600 980" fill="none" xmlns="http://www.w3.org/2000/svg">
  <rect width="1600" height="980" fill="#0D1111"/>
  <rect x="26" y="26" width="1548" height="928" rx="24" fill="#141B1B" stroke="#8A7A52" stroke-width="2"/>
  <text x="68" y="84" fill="#C9C2AE" font-family="Arial" font-size="22" letter-spacing="5">SHARED SHELL POST-CASE RESULT + REQUEUE COMPONENTS</text>
  <rect x="68" y="118" width="1464" height="148" rx="20" fill="#182020" stroke="#8A7A52" stroke-width="2"/>
  <text x="102" y="162" fill="#F2E7BF" font-family="Arial" font-size="36" font-weight="700">Result banner / route pills / recap cards / debrief rows</text>
  <text x="102" y="214" fill="#AAB4A5" font-family="Arial" font-size="22">Component family for GP-A-P4 post-case surfaces. Use as a carry-forward sheet, not a final widget library.</text>
  <rect x="68" y="308" width="448" height="188" rx="18" fill="#202929" stroke="#8A7A52"/>
  <text x="98" y="350" fill="#C6D0C2" font-family="Arial" font-size="18" letter-spacing="3">RESULT BANNER</text>
  <text x="98" y="396" fill="#F5F2E8" font-family="Arial" font-size="34" font-weight="700">CONTAINED / REVIEWED / ARCHIVED</text>
  <rect x="98" y="430" width="170" height="34" rx="17" fill="#35433B"/>
  <rect x="282" y="430" width="92" height="34" rx="17" fill="#8A7A52"/>
  <rect x="388" y="430" width="96" height="34" rx="17" fill="#232D2A"/>
  <rect x="548" y="308" width="448" height="188" rx="18" fill="#202929" stroke="#6D7E70"/>
  <text x="578" y="350" fill="#C6D0C2" font-family="Arial" font-size="18" letter-spacing="3">ROUTE PILLS</text>
  <rect x="578" y="388" width="110" height="40" rx="20" fill="#8A7A52"/>
  <rect x="704" y="388" width="122" height="40" rx="20" fill="#35433B"/>
  <rect x="842" y="388" width="132" height="40" rx="20" fill="#232D2A"/>
  <text x="590" y="414" fill="#0D1111" font-family="Arial" font-size="18" font-weight="700">RESULT</text>
  <text x="723" y="414" fill="#F5F2E8" font-family="Arial" font-size="18" font-weight="700">DEBRIEF</text>
  <text x="867" y="414" fill="#F5F2E8" font-family="Arial" font-size="18" font-weight="700">REQUEUE</text>
  <rect x="1028" y="308" width="504" height="188" rx="18" fill="#202929" stroke="#6D7E70"/>
  <text x="1058" y="350" fill="#C6D0C2" font-family="Arial" font-size="18" letter-spacing="3">SUMMARY STRIP</text>
  <rect x="1058" y="388" width="444" height="68" rx="16" fill="#171F1F" stroke="#8A7A52"/>
  <text x="1088" y="430" fill="#F5F2E8" font-family="Arial" font-size="28" font-weight="700">Verdict first, next route second, no live-service urgency.</text>
  <rect x="68" y="536" width="448" height="176" rx="18" fill="#202929" stroke="#6D7E70"/>
  <text x="98" y="578" fill="#C6D0C2" font-family="Arial" font-size="18" letter-spacing="3">DEBRIEF ROUTE ROW</text>
  <rect x="98" y="612" width="388" height="68" rx="14" fill="#171F1F" stroke="#8A7A52"/>
  <text x="126" y="654" fill="#F5F2E8" font-family="Arial" font-size="28" font-weight="700">Open file review before next action</text>
  <rect x="548" y="536" width="448" height="176" rx="18" fill="#202929" stroke="#6D7E70"/>
  <text x="578" y="578" fill="#C6D0C2" font-family="Arial" font-size="18" letter-spacing="3">RESULT RECAP CARD</text>
  <rect x="578" y="612" width="388" height="68" rx="14" fill="#171F1F" stroke="#8A7A52"/>
  <text x="606" y="654" fill="#F5F2E8" font-family="Arial" font-size="28" font-weight="700">Boundary held / notes archived</text>
  <rect x="1028" y="536" width="504" height="176" rx="18" fill="#202929" stroke="#6D7E70"/>
  <text x="1058" y="578" fill="#C6D0C2" font-family="Arial" font-size="18" letter-spacing="3">DEBRIEF NOTE CARD</text>
  <rect x="1058" y="612" width="444" height="68" rx="14" fill="#171F1F" stroke="#8A7A52"/>
  <text x="1086" y="654" fill="#F5F2E8" font-family="Arial" font-size="28" font-weight="700">Keep the aftermath clerical and readable.</text>
  <rect x="68" y="752" width="688" height="152" rx="18" fill="#202929" stroke="#6D7E70"/>
  <text x="98" y="794" fill="#C6D0C2" font-family="Arial" font-size="18" letter-spacing="3">NEXT-CASE ROUTE CARD</text>
  <rect x="98" y="826" width="628" height="48" rx="12" fill="#171F1F" stroke="#8A7A52"/>
  <text x="126" y="857" fill="#F5F2E8" font-family="Arial" font-size="24" font-weight="700">Queue next case after debrief settles. Do not imply runtime queue guarantees.</text>
  <rect x="788" y="752" width="744" height="152" rx="18" fill="#202929" stroke="#6D7E70"/>
  <text x="818" y="794" fill="#C6D0C2" font-family="Arial" font-size="18" letter-spacing="3">BOUNDARY</text>
  <text x="818" y="840" fill="#D5DCCF" font-family="Arial" font-size="26">This sheet supports GP-A-P4 source art only. It does not prove final replay reset, requeue behavior, controller navigation, or Unreal widget implementation.</text>
</svg>
