<svg xmlns="http://www.w3.org/2000/svg" width="1600" height="980" viewBox="0 0 1600 980">
  <rect width="1600" height="980" fill="#11100d"/>
  <rect x="26" y="26" width="1548" height="928" rx="24" fill="#181714" stroke="#958246" stroke-width="3"/>
  <text x="64" y="90" fill="#efe7d4" font-family="Arial, Helvetica, sans-serif" font-size="34" font-weight="700">Shared Shell Disconnect + Retry Components</text>
  <text x="64" y="124" fill="#b8b09f" font-family="Arial, Helvetica, sans-serif" font-size="20">Carry-forward component sheet for GP-A11 disconnect-state, unavailable-service, and retry-later shell surfaces</text>

  <rect x="64" y="162" width="1472" height="744" rx="22" fill="#1c1a17" stroke="#63726c" stroke-width="2"/>
  <text x="96" y="214" fill="#efe7d4" font-family="Arial, Helvetica, sans-serif" font-size="28" font-weight="700">Component Set</text>

  <rect x="96" y="248" width="336" height="88" rx="18" fill="#25221e" stroke="#958246" stroke-width="2"/>
  <text x="126" y="303" fill="#ece4d0" font-family="Arial, Helvetica, sans-serif" font-size="30" font-weight="700">disconnect banner</text>

  <rect x="468" y="248" width="252" height="88" rx="44" fill="#2a332f" stroke="#63726c" stroke-width="2"/>
  <text x="528" y="303" fill="#dde5de" font-family="Arial, Helvetica, sans-serif" font-size="28" font-weight="700">recover</text>

  <rect x="756" y="248" width="252" height="88" rx="44" fill="#2a2722" stroke="#958246" stroke-width="2"/>
  <text x="822" y="303" fill="#ead8a4" font-family="Arial, Helvetica, sans-serif" font-size="28" font-weight="700">later</text>

  <rect x="1044" y="248" width="228" height="88" rx="18" fill="#e8e0cd" stroke="#a28d4e" stroke-width="2"/>
  <text x="1088" y="303" fill="#27231f" font-family="Arial, Helvetica, sans-serif" font-size="28" font-weight="700">notice</text>

  <rect x="1308" y="248" width="182" height="88" rx="18" fill="#23211d" stroke="#63726c" stroke-width="2"/>
  <text x="1338" y="303" fill="#ece4d0" font-family="Arial, Helvetica, sans-serif" font-size="28" font-weight="700">hold</text>

  <rect x="96" y="410" width="554" height="66" rx="12" fill="#23211d" stroke="#63726c" stroke-width="2"/>
  <rect x="106" y="420" width="298" height="46" rx="10" fill="#d2bc7b"/>
  <text x="126" y="449" fill="#27231f" font-family="Arial, Helvetica, sans-serif" font-size="20" font-weight="700">disconnect / retry strip</text>

  <rect x="688" y="396" width="360" height="94" rx="18" fill="#25221e" stroke="#958246" stroke-width="2"/>
  <text x="718" y="453" fill="#ece4d0" font-family="Arial, Helvetica, sans-serif" font-size="28" font-weight="700">service hold banner</text>

  <rect x="1086" y="396" width="188" height="94" rx="47" fill="#2a332f" stroke="#63726c" stroke-width="2"/>
  <text x="1138" y="453" fill="#dde5de" font-family="Arial, Helvetica, sans-serif" font-size="28" font-weight="700">retry</text>

  <rect x="1308" y="396" width="188" height="94" rx="47" fill="#2a2722" stroke="#958246" stroke-width="2"/>
  <text x="1360" y="453" fill="#ead8a4" font-family="Arial, Helvetica, sans-serif" font-size="28" font-weight="700">later</text>

  <rect x="96" y="576" width="428" height="92" rx="18" fill="#25221e" stroke="#63726c" stroke-width="2"/>
  <text x="126" y="634" fill="#ece4d0" font-family="Arial, Helvetica, sans-serif" font-size="29" font-weight="700">retry window card</text>

  <rect x="562" y="576" width="430" height="92" rx="18" fill="#25221e" stroke="#958246" stroke-width="2"/>
  <text x="592" y="634" fill="#ece4d0" font-family="Arial, Helvetica, sans-serif" font-size="29" font-weight="700">service unavailable row</text>

  <rect x="1030" y="576" width="460" height="92" rx="18" fill="#25221e" stroke="#63726c" stroke-width="2"/>
  <text x="1060" y="634" fill="#ece4d0" font-family="Arial, Helvetica, sans-serif" font-size="29" font-weight="700">reconnect status card</text>

  <text x="96" y="768" fill="#d8d0be" font-family="Arial, Helvetica, sans-serif" font-size="21">Use this sheet to keep GP-A11 interruption states visually consistent across disconnect, unavailable-service, and retry-later shell surfaces.</text>
  <text x="96" y="804" fill="#b8b09f" font-family="Arial, Helvetica, sans-serif" font-size="18">These are source-art components only. Runtime reconnect logic, outage timing, and service recovery behavior still belong to later implementation work.</text>
</svg>
