<svg xmlns="http://www.w3.org/2000/svg" width="1600" height="980" viewBox="0 0 1600 980">
  <rect width="1600" height="980" fill="#11100d"/>
  <rect x="26" y="26" width="1548" height="928" rx="24" fill="#181714" stroke="#958246" stroke-width="3"/>
  <text x="64" y="90" fill="#efe7d4" font-family="Arial, Helvetica, sans-serif" font-size="34" font-weight="700">Shared Shell Role + Ready Components</text>
  <text x="64" y="124" fill="#b8b09f" font-family="Arial, Helvetica, sans-serif" font-size="20">Carry-forward component sheet for GP-A4 tool-grab and role-confirmation shell surfaces</text>

  <rect x="64" y="162" width="1472" height="744" rx="22" fill="#1c1a17" stroke="#63726c" stroke-width="2"/>
  <text x="96" y="214" fill="#efe7d4" font-family="Arial, Helvetica, sans-serif" font-size="28" font-weight="700">Component Set</text>

  <rect x="96" y="248" width="288" height="86" rx="18" fill="#25221e" stroke="#958246" stroke-width="2"/>
  <text x="126" y="302" fill="#ece4d0" font-family="Arial, Helvetica, sans-serif" font-size="30" font-weight="700">tool family bar</text>

  <rect x="420" y="248" width="250" height="86" rx="43" fill="#2a332f" stroke="#63726c" stroke-width="2"/>
  <text x="488" y="302" fill="#dde5de" font-family="Arial, Helvetica, sans-serif" font-size="28" font-weight="700">issued</text>

  <rect x="704" y="248" width="250" height="86" rx="43" fill="#2a2722" stroke="#958246" stroke-width="2"/>
  <text x="780" y="302" fill="#ead8a4" font-family="Arial, Helvetica, sans-serif" font-size="28" font-weight="700">review</text>

  <rect x="988" y="248" width="246" height="86" rx="43" fill="#23211d" stroke="#958246" stroke-width="2"/>
  <text x="1040" y="302" fill="#ece4d0" font-family="Arial, Helvetica, sans-serif" font-size="28" font-weight="700">role chip</text>

  <rect x="1268" y="248" width="222" height="86" rx="18" fill="#e8e0cd" stroke="#a28d4e" stroke-width="2"/>
  <text x="1312" y="302" fill="#27231f" font-family="Arial, Helvetica, sans-serif" font-size="28" font-weight="700">tool card</text>

  <rect x="96" y="420" width="542" height="64" rx="12" fill="#23211d" stroke="#63726c" stroke-width="2"/>
  <rect x="106" y="430" width="332" height="44" rx="10" fill="#d2bc7b"/>
  <text x="126" y="458" fill="#27231f" font-family="Arial, Helvetica, sans-serif" font-size="20" font-weight="700">team ready / unresolved strip</text>

  <rect x="682" y="406" width="360" height="94" rx="18" fill="#25221e" stroke="#958246" stroke-width="2"/>
  <text x="712" y="463" fill="#ece4d0" font-family="Arial, Helvetica, sans-serif" font-size="28" font-weight="700">role confirmation banner</text>

  <rect x="1080" y="406" width="188" height="94" rx="47" fill="#2a332f" stroke="#63726c" stroke-width="2"/>
  <text x="1122" y="463" fill="#dde5de" font-family="Arial, Helvetica, sans-serif" font-size="28" font-weight="700">ready</text>

  <rect x="1302" y="406" width="188" height="94" rx="47" fill="#2a2722" stroke="#958246" stroke-width="2"/>
  <text x="1348" y="463" fill="#ead8a4" font-family="Arial, Helvetica, sans-serif" font-size="28" font-weight="700">swap</text>

  <rect x="96" y="584" width="426" height="92" rx="18" fill="#25221e" stroke="#63726c" stroke-width="2"/>
  <text x="126" y="642" fill="#ece4d0" font-family="Arial, Helvetica, sans-serif" font-size="29" font-weight="700">dependency / wait card</text>

  <rect x="560" y="584" width="436" height="92" rx="18" fill="#25221e" stroke="#958246" stroke-width="2"/>
  <text x="590" y="642" fill="#ece4d0" font-family="Arial, Helvetica, sans-serif" font-size="29" font-weight="700">case-ready summary card</text>

  <rect x="1034" y="584" width="456" height="92" rx="18" fill="#25221e" stroke="#63726c" stroke-width="2"/>
  <text x="1064" y="642" fill="#ece4d0" font-family="Arial, Helvetica, sans-serif" font-size="29" font-weight="700">tool sync badge row</text>

  <text x="96" y="768" fill="#d8d0be" font-family="Arial, Helvetica, sans-serif" font-size="21">Use this sheet to keep GP-A4 surfaces visually consistent across tool issue, role confirmation, and ready-state summary screens.</text>
  <text x="96" y="804" fill="#b8b09f" font-family="Arial, Helvetica, sans-serif" font-size="18">These are source-art components only. Runtime state order, focus rules, and controller-safe spacing still belong to later implementation work.</text>
</svg>
