<svg xmlns="http://www.w3.org/2000/svg" width="1200" height="800" viewBox="0 0 1200 800">
  <rect width="1200" height="800" fill="#22231f"/>
  <text x="72" y="78" font-family="Georgia, serif" font-size="40" fill="#f4efdc">Baby monitor connected to reversed hymn</text>
  <text x="72" y="124" font-family="Arial, sans-serif" font-size="22" fill="#c9c0a3">True clue: domestic sound source, impossible choir behavior.</text>
  <rect x="420" y="258" width="360" height="288" rx="26" fill="#d8d0bd" stroke="#8f9087" stroke-width="7"/>
  <rect x="470" y="318" width="260" height="98" rx="10" fill="#25241f" stroke="#a98f45" stroke-width="4"/>
  <path d="M490 368 C510 308 532 430 552 370 S594 326 614 370 S654 414 676 370 S708 326 724 370" fill="none" stroke="#e8e2d3" stroke-width="6"/>
  <path d="M728 310 L805 236" stroke="#8f9087" stroke-width="8" stroke-linecap="round"/><circle cx="818" cy="222" r="22" fill="#a98f45"/>
  <g fill="#25241f" opacity="0.65"><circle cx="498" cy="472" r="9"/><circle cx="532" cy="472" r="9"/><circle cx="566" cy="472" r="9"/><circle cx="600" cy="472" r="9"/><circle cx="634" cy="472" r="9"/><circle cx="668" cy="472" r="9"/><circle cx="702" cy="472" r="9"/></g>
  <g fill="none" stroke="#f4efdc" stroke-width="3" opacity="0.55"><path d="M342 358 C270 300 270 456 342 398"/><path d="M304 324 C190 232 188 526 304 434"/><path d="M858 358 C930 300 930 456 858 398"/><path d="M896 324 C1010 232 1012 526 896 434"/></g>
  <text x="445" y="604" font-family="Arial, sans-serif" font-size="30" fill="#f4efdc">AUDIO: NYMH DESREVER</text>
  <text x="72" y="720" font-family="Arial, sans-serif" font-size="24" fill="#f4efdc">Use note: breath and broken choir should arrive before the full pattern becomes obvious.</text>
</svg>
