<svg xmlns="http://www.w3.org/2000/svg" width="1400" height="900" viewBox="0 0 1400 900">
  <defs>
    <linearGradient id="floor" x1="0" x2="0" y1="0" y2="1">
      <stop offset="0" stop-color="#2f2b26"/>
      <stop offset="1" stop-color="#171612"/>
    </linearGradient>
    <filter id="chalk" x="-20%" y="-20%" width="140%" height="140%">
      <feGaussianBlur stdDeviation="1.6"/>
    </filter>
    <g id="tearTriplet" fill="#e8e2d3" opacity="0.92">
      <path d="M0 0 C10 -22 22 -20 28 0 C28 16 18 28 14 36 C10 28 0 16 0 0 Z"/>
      <path d="M38 10 C46 -7 56 -6 62 10 C62 23 54 34 50 41 C46 34 38 23 38 10 Z" opacity="0.85"/>
      <path d="M74 0 C84 -22 96 -20 102 0 C102 16 92 28 88 36 C84 28 74 16 74 0 Z" opacity="0.72"/>
    </g>
    <g id="haloCrown" fill="none" stroke-linecap="round" stroke-linejoin="round">
      <path d="M-138 36 C-92 -48 -38 -88 0 -104 C38 -88 92 -48 138 36" stroke="#e8e2d3" stroke-width="10"/>
      <path d="M-96 26 L-56 -54 L-8 20 L40 -54 L88 26" stroke="#a98f45" stroke-width="8"/>
      <circle cx="0" cy="4" r="30" stroke="#e8e2d3" stroke-width="7"/>
    </g>
  </defs>
  <rect width="1400" height="900" fill="url(#floor)"/>
  <g opacity="0.26" stroke="#3d3830" stroke-width="4">
    <path d="M0 598 H1400"/>
    <path d="M0 692 H1400"/>
    <path d="M0 786 H1400"/>
    <path d="M126 580 L72 900"/>
    <path d="M334 580 L278 900"/>
    <path d="M542 580 L486 900"/>
    <path d="M750 580 L694 900"/>
    <path d="M958 580 L902 900"/>
    <path d="M1166 580 L1110 900"/>
  </g>
  <text x="72" y="86" font-family="Georgia, serif" font-size="42" fill="#f4efdc">Nursery sigil, correct ritual anchor</text>
  <text x="72" y="128" font-family="Arial, sans-serif" font-size="24" fill="#c9c0a3">Refresh goal: make the true floor mark visibly rhyme with the cradle halo and the prayer-card crown family.</text>
  <g transform="translate(700 510)">
    <ellipse cx="0" cy="0" rx="374" ry="190" fill="none" stroke="#e8e2d3" stroke-width="10" stroke-dasharray="34 22" filter="url(#chalk)"/>
    <ellipse cx="0" cy="0" rx="298" ry="148" fill="none" stroke="#a98f45" stroke-width="6" opacity="0.95"/>
    <use href="#haloCrown" transform="translate(0 -52)"/>
    <path d="M-248 22 C-178 -68 -84 -118 0 -132 C84 -118 178 -68 248 22" fill="none" stroke="#e8e2d3" stroke-width="7" stroke-dasharray="10 18" opacity="0.72"/>
    <path d="M-222 44 C-156 2 -82 -22 0 -28 C82 -22 156 2 222 44" fill="none" stroke="#a98f45" stroke-width="8" opacity="0.9"/>
    <path d="M-186 86 C-108 26 108 26 186 86" fill="none" stroke="#e8e2d3" stroke-width="7"/>
    <path d="M-226 112 L-176 236 M226 112 L176 236" stroke="#a98f45" stroke-width="11" stroke-linecap="round"/>
    <rect x="-168" y="102" width="336" height="86" rx="12" fill="#3b352d" stroke="#e8e2d3" stroke-width="4"/>
    <path d="M-150 102 C-80 38 80 38 150 102" fill="none" stroke="#a98f45" stroke-width="8"/>
    <path d="M-114 188 Q0 240 114 188" fill="none" stroke="#a98f45" stroke-width="8"/>
    <circle cx="0" cy="36" r="48" fill="none" stroke="#a98f45" stroke-width="8"/>
    <use href="#tearTriplet" transform="translate(-52 -22) scale(1.04)"/>
    <use href="#tearTriplet" transform="translate(-51 204) scale(0.88)" opacity="0.68"/>
    <circle cx="-332" cy="0" r="11" fill="#e8e2d3"/>
    <circle cx="332" cy="0" r="11" fill="#e8e2d3"/>
    <circle cx="0" cy="-210" r="11" fill="#e8e2d3"/>
    <circle cx="0" cy="210" r="11" fill="#e8e2d3"/>
    <circle cx="-258" cy="-112" r="8" fill="#a98f45"/>
    <circle cx="258" cy="-112" r="8" fill="#a98f45"/>
    <circle cx="-258" cy="112" r="8" fill="#a98f45"/>
    <circle cx="258" cy="112" r="8" fill="#a98f45"/>
  </g>
  <g transform="translate(1080 328)">
    <text x="0" y="0" font-family="Georgia, serif" font-size="26" fill="#f4efdc">Read as corroborated evidence</text>
    <text x="0" y="42" font-family="Arial, sans-serif" font-size="22" fill="#d8c78d">halo arc + broken crown + nursery cradle bar</text>
    <text x="0" y="78" font-family="Arial, sans-serif" font-size="22" fill="#d8c78d">dry chalk, pale ash, restrained old gold</text>
    <text x="0" y="114" font-family="Arial, sans-serif" font-size="22" fill="#d8c78d">same motif family as cards and monitor clue</text>
  </g>
  <rect x="72" y="770" width="1256" height="78" rx="12" fill="#12110f" stroke="#a98f45" stroke-width="3"/>
  <text x="104" y="818" font-family="Arial, sans-serif" font-size="28" fill="#f4efdc">Intended usage: place this on the nursery floor so the player reads “child-facing rite” before “generic occult circle.”</text>
</svg>
