<svg xmlns="http://www.w3.org/2000/svg" width="1600" height="900" viewBox="0 0 1600 900">
  <rect width="1600" height="900" fill="#12110e"/>
  <rect x="28" y="28" width="1544" height="844" rx="24" fill="#181613" stroke="#978347" stroke-width="3"/>
  <rect x="90" y="84" width="1420" height="732" rx="18" fill="#e7deca" stroke="#a28c4d" stroke-width="3"/>
  <rect x="126" y="122" width="1348" height="64" rx="12" fill="#27231f"/>
  <text x="156" y="164" fill="#efe7d3" font-family="Arial, Helvetica, sans-serif" font-size="28" font-weight="700">CASE BRIEFING // APARTMENT 302</text>
  <rect x="126" y="224" width="408" height="520" rx="18" fill="#f1eadb" stroke="#c0aa66" stroke-width="2"/>
  <text x="156" y="276" fill="#27231f" font-family="Arial, Helvetica, sans-serif" font-size="26" font-weight="700">Objective</text>
  <text x="156" y="324" fill="#38332d" font-family="Arial, Helvetica, sans-serif" font-size="20">1. Inspect clustered evidence.</text>
  <text x="156" y="360" fill="#38332d" font-family="Arial, Helvetica, sans-serif" font-size="20">2. Reject the loudest bait path.</text>
  <text x="156" y="396" fill="#38332d" font-family="Arial, Helvetica, sans-serif" font-size="20">3. Prepare the correct anchor.</text>
  <text x="156" y="432" fill="#38332d" font-family="Arial, Helvetica, sans-serif" font-size="20">4. Complete the rite cleanly.</text>
  <rect x="570" y="224" width="418" height="520" rx="18" fill="#f1eadb" stroke="#75837d" stroke-width="2"/>
  <text x="600" y="276" fill="#27231f" font-family="Arial, Helvetica, sans-serif" font-size="26" font-weight="700">Known Roles</text>
  <rect x="600" y="312" width="358" height="60" rx="14" fill="#e7deca" stroke="#75837d" stroke-width="2"/>
  <rect x="600" y="390" width="358" height="60" rx="14" fill="#e7deca" stroke="#75837d" stroke-width="2"/>
  <rect x="600" y="468" width="358" height="60" rx="14" fill="#e7deca" stroke="#75837d" stroke-width="2"/>
  <rect x="600" y="546" width="358" height="60" rx="14" fill="#e7deca" stroke="#75837d" stroke-width="2"/>
  <text x="626" y="350" fill="#33302a" font-family="Arial, Helvetica, sans-serif" font-size="21">reader // interpret the pattern</text>
  <text x="626" y="428" fill="#33302a" font-family="Arial, Helvetica, sans-serif" font-size="21">anchor // commit the right locus</text>
  <text x="626" y="506" fill="#33302a" font-family="Arial, Helvetica, sans-serif" font-size="21">censer // stabilize pressure</text>
  <text x="626" y="584" fill="#33302a" font-family="Arial, Helvetica, sans-serif" font-size="21">guard // protect the sequence</text>
  <rect x="1024" y="224" width="450" height="520" rx="18" fill="#f1eadb" stroke="#c0aa66" stroke-width="2"/>
  <text x="1054" y="276" fill="#27231f" font-family="Arial, Helvetica, sans-serif" font-size="26" font-weight="700">Briefing Notes</text>
  <text x="1054" y="324" fill="#38332d" font-family="Arial, Helvetica, sans-serif" font-size="20">Paper-first and procedural.</text>
  <text x="1054" y="360" fill="#38332d" font-family="Arial, Helvetica, sans-serif" font-size="20">No fake-horror distortion around live text.</text>
  <text x="1054" y="396" fill="#38332d" font-family="Arial, Helvetica, sans-serif" font-size="20">The shell frames the room without solving it.</text>
  <rect x="1054" y="470" width="190" height="54" rx="27" fill="#2a332f" stroke="#75837d" stroke-width="2"/>
  <text x="1104" y="505" fill="#dde5de" font-family="Arial, Helvetica, sans-serif" font-size="22" font-weight="700">briefed</text>
</svg>
