<svg xmlns="http://www.w3.org/2000/svg" width="1600" height="900" viewBox="0 0 1600 900">
  <defs>
    <linearGradient id="bg" x1="0" x2="1" y1="0" y2="1">
      <stop offset="0" stop-color="#1b1b18"/>
      <stop offset="1" stop-color="#10100d"/>
    </linearGradient>
    <linearGradient id="paper" x1="0" x2="0" y1="0" y2="1">
      <stop offset="0" stop-color="#efe7c8"/>
      <stop offset="1" stop-color="#d8c78d"/>
    </linearGradient>
    <filter id="shadow" x="-20%" y="-20%" width="140%" height="140%">
      <feDropShadow dx="0" dy="12" stdDeviation="18" flood-color="#000000" flood-opacity="0.35"/>
    </filter>
    <g id="haloMotif" fill="none" stroke-linecap="round" stroke-linejoin="round">
      <path d="M-64 16 C-38 -24 -14 -40 0 -44 C14 -40 38 -24 64 16" stroke="#e8e2d3" stroke-width="6"/>
      <path d="M-40 10 L-22 -20 L0 8 L22 -20 L40 10" stroke="#a98f45" stroke-width="5"/>
      <circle cx="0" cy="14" r="12" stroke="#a98f45" stroke-width="4"/>
    </g>
  </defs>
  <rect width="1600" height="900" fill="url(#bg)"/>
  <rect width="1600" height="900" fill="#f4efdc" opacity="0.03"/>
  <g opacity="0.2">
    <path d="M0 784 C184 712 402 696 584 746 C770 796 938 794 1138 730 C1314 672 1462 674 1600 722 L1600 900 L0 900 Z" fill="#a98f45"/>
    <path d="M0 808 C246 730 418 742 598 780 C794 820 980 822 1192 768 C1390 718 1494 726 1600 754 L1600 900 L0 900 Z" fill="#e8e2d3" opacity="0.3"/>
  </g>
  <text x="72" y="76" font-family="Georgia, serif" font-size="46" fill="#f4efdc">Hollow Saint clue-note overlay</text>
  <text x="72" y="118" font-family="Arial, sans-serif" font-size="23" fill="#c9c0a3">UI-support source art: readable evidence card with quiet devotional framing and a protected text zone.</text>
  <g transform="translate(160 180)" filter="url(#shadow)">
    <rect width="1280" height="600" rx="24" fill="#11120f" opacity="0.84" stroke="#8f9087" stroke-width="3"/>
    <rect x="52" y="52" width="1176" height="496" rx="18" fill="url(#paper)" opacity="0.96"/>
    <rect x="84" y="92" width="1112" height="416" rx="14" fill="#f7f1dd" opacity="0.96" stroke="#c9c0a3" stroke-width="2"/>
    <rect x="118" y="142" width="1044" height="308" rx="14" fill="#fffdf7" opacity="0.94"/>
    <path d="M114 140 H1166" stroke="#d5c49d" stroke-width="2" opacity="0.8"/>
    <path d="M114 196 H1166" stroke="#ece2c4" stroke-width="2"/>
    <path d="M114 248 H1166" stroke="#ece2c4" stroke-width="2"/>
    <path d="M114 300 H1166" stroke="#ece2c4" stroke-width="2"/>
    <path d="M114 352 H1166" stroke="#ece2c4" stroke-width="2"/>
    <path d="M114 404 H1166" stroke="#ece2c4" stroke-width="2"/>
    <rect x="102" y="108" width="312" height="48" rx="10" fill="#11120f" opacity="0.9"/>
    <text x="128" y="141" font-family="Arial, sans-serif" font-size="26" fill="#a98f45">CLUE NOTE / SAFE TEXT AREA</text>
    <g transform="translate(220 448)" opacity="0.55">
      <use href="#haloMotif"/>
      <path d="M-118 42 C-60 0 60 0 118 42" stroke="#e8e2d3" stroke-width="5"/>
    </g>
    <g transform="translate(1060 172)" opacity="0.72">
      <use href="#haloMotif"/>
    </g>
    <g transform="translate(1060 432)" opacity="0.52">
      <use href="#haloMotif" transform="scale(1.1)"/>
      <path d="M-84 -10 Q0 60 84 -10" fill="none" stroke="#8f9087" stroke-width="5"/>
    </g>
    <path d="M178 556 C318 498 562 490 702 532 C858 578 1034 580 1188 528" fill="none" stroke="#a98f45" stroke-width="6" opacity="0.8"/>
  </g>
  <g transform="translate(160 820)">
    <rect width="1280" height="48" rx="10" fill="#11120f" opacity="0.76" stroke="#a98f45" stroke-width="2"/>
    <text x="28" y="32" font-family="Arial, sans-serif" font-size="24" fill="#f4efdc">Usage note: keep gameplay text inside the bright lined field; reserve the halo/crown marks for edges and footer ornament only.</text>
  </g>
</svg>
