<svg xmlns="http://www.w3.org/2000/svg" width="1600" height="900" viewBox="0 0 1600 900">
  <defs>
    <linearGradient id="paper" x1="0" x2="0" y1="0" y2="1">
      <stop offset="0" stop-color="#e5d4a4"/>
      <stop offset="1" stop-color="#c9b06e"/>
    </linearGradient>
  </defs>
  <rect width="1600" height="900" fill="#171612"/>
  <text x="72" y="76" font-family="Georgia, serif" font-size="46" fill="#f4efdc">Clue-note overlay dark variant</text>
  <text x="72" y="118" font-family="Arial, sans-serif" font-size="23" fill="#c9c0a3">Export-safe UI support for brighter scenes where the panel must stay readable without washing out the room.</text>
  <g transform="translate(152 176)">
    <rect width="1296" height="612" rx="24" fill="#0f100d" opacity="0.88" stroke="#8f9087" stroke-width="3"/>
    <rect x="56" y="54" width="1184" height="504" rx="18" fill="url(#paper)" opacity="0.9"/>
    <rect x="94" y="102" width="1108" height="390" rx="16" fill="#f4ecd0" opacity="0.92" stroke="#a98f45" stroke-width="2"/>
    <rect x="126" y="148" width="1044" height="302" rx="16" fill="#faf5e7" opacity="0.93"/>
    <path d="M124 202 H1172 M124 254 H1172 M124 306 H1172 M124 358 H1172 M124 410 H1172" stroke="#dccca1" stroke-width="2"/>
    <rect x="110" y="112" width="296" height="46" rx="10" fill="#11120f" opacity="0.94"/>
    <text x="136" y="143" font-family="Arial, sans-serif" font-size="25" fill="#a98f45">DARK-ROOM SAFE NOTE</text>
    <path d="M182 548 C278 510 420 504 534 532 C618 552 692 554 776 540" fill="none" stroke="#8f9087" stroke-width="6" opacity="0.55"/>
    <path d="M968 542 C1004 502 1040 478 1072 470 C1108 478 1142 502 1178 542" fill="none" stroke="#e8e2d3" stroke-width="4" opacity="0.34"/>
  </g>
  <rect x="152" y="820" width="1296" height="44" rx="10" fill="#11120f" opacity="0.82" stroke="#8f9087" stroke-width="2"/>
  <text x="180" y="849" font-family="Arial, sans-serif" font-size="24" fill="#f4efdc">Use when wall values or VFX are already bright enough that the lighter clue-note panel would overexpose the screen balance.</text>
</svg>
