<svg xmlns="http://www.w3.org/2000/svg" width="1600" height="1000" viewBox="0 0 1600 1000">
  <rect width="1600" height="1000" fill="#1f211d"/>
  <text x="64" y="76" font-family="Georgia, serif" font-size="46" fill="#f4efdc">Apartment 302 material atlas</text>
  <text x="64" y="120" font-family="Arial, sans-serif" font-size="23" fill="#c9c0a3">Prototype-ready surface targets: domestic decay first, ritual evidence second.</text>
  <g transform="translate(64 168)">
    <rect width="210" height="86" rx="8" fill="#e8e2d3"/><text x="232" y="54" font-family="Arial, sans-serif" font-size="24" fill="#f4efdc">ash white #e8e2d3</text>
    <rect y="104" width="210" height="86" rx="8" fill="#f4efdc"/><text x="232" y="158" font-family="Arial, sans-serif" font-size="24" fill="#f4efdc">candle white #f4efdc</text>
    <rect y="208" width="210" height="86" rx="8" fill="#a98f45"/><text x="232" y="262" font-family="Arial, sans-serif" font-size="24" fill="#f4efdc">old gold #a98f45</text>
    <rect y="312" width="210" height="86" rx="8" fill="#8f9087"/><text x="232" y="366" font-family="Arial, sans-serif" font-size="24" fill="#f4efdc">damp wall gray #8f9087</text>
    <rect y="416" width="210" height="86" rx="8" fill="#25241f" stroke="#8f9087"/><text x="232" y="470" font-family="Arial, sans-serif" font-size="24" fill="#f4efdc">dark floor #25241f</text>
    <rect y="520" width="210" height="86" rx="8" fill="#71817d"/><text x="232" y="574" font-family="Arial, sans-serif" font-size="24" fill="#f4efdc">nursery cloth #71817d</text>
  </g>
  <g transform="translate(640 170)">
    <rect width="370" height="240" rx="8" fill="#b6b2a2"/>
    <path d="M24 64 C104 22 172 90 250 52 S312 28 350 56" fill="none" stroke="#5d655e" stroke-width="12" opacity="0.4"/>
    <circle cx="102" cy="154" r="38" fill="#a98f45" opacity="0.22"/><circle cx="282" cy="106" r="48" fill="#25241f" opacity="0.1"/>
    <text x="20" y="222" font-family="Arial, sans-serif" font-size="24" fill="#25241f">old apartment wall</text>
    <rect x="430" width="370" height="240" rx="8" fill="#25241f"/>
    <g stroke="#11120f" stroke-width="6"><path d="M430 50 H800"/><path d="M430 104 H800"/><path d="M430 158 H800"/></g>
    <g stroke="#3c3a31" stroke-width="4"><path d="M456 72 C520 38 604 90 770 58"/><path d="M458 176 C562 140 650 204 780 170"/></g>
    <text x="450" y="222" font-family="Arial, sans-serif" font-size="24" fill="#e8e2d3">dark worn floor</text>
    <rect y="300" width="370" height="240" rx="8" fill="#25241f"/>
    <circle cx="185" cy="118" r="88" fill="none" stroke="#e8e2d3" stroke-width="15" stroke-dasharray="42 24"/>
    <path d="M104 120 C148 70 222 70 266 120 C222 172 148 172 104 120 Z" fill="none" stroke="#f4efdc" stroke-width="9"/>
    <text x="20" y="522" font-family="Arial, sans-serif" font-size="24" fill="#f4efdc">pale chalk mark</text>
    <rect x="430" y="300" width="370" height="240" rx="8" fill="#3c3a31"/>
    <g fill="#e8e2d3" opacity="0.86" transform="translate(615 415) scale(0.65)"><ellipse cx="0" cy="56" rx="58" ry="78"/><ellipse cx="-86" cy="-42" rx="20" ry="66" transform="rotate(-24 -86 -42)"/><ellipse cx="-30" cy="-80" rx="20" ry="76"/><ellipse cx="32" cy="-82" rx="20" ry="78"/><ellipse cx="86" cy="-42" rx="20" ry="66" transform="rotate(24 86 -42)"/></g>
    <text x="450" y="522" font-family="Arial, sans-serif" font-size="24" fill="#f4efdc">ash handprint</text>
    <rect y="600" width="370" height="240" rx="8" fill="#71817d"/>
    <g fill="#f4efdc" opacity="0.22"><circle cx="70" cy="70" r="28"/><circle cx="170" cy="70" r="28"/><circle cx="270" cy="70" r="28"/><circle cx="120" cy="160" r="28"/><circle cx="220" cy="160" r="28"/><circle cx="320" cy="160" r="28"/></g>
    <ellipse cx="220" cy="132" rx="94" ry="36" fill="#25241f" opacity="0.18"/>
    <text x="20" y="822" font-family="Arial, sans-serif" font-size="24" fill="#f4efdc">dirty nursery cloth</text>
    <rect x="430" y="600" width="370" height="240" rx="8" fill="#d8c78d"/>
    <rect x="535" y="632" width="160" height="170" rx="8" fill="#efe7c8" stroke="#f4efdc" stroke-width="5"/>
    <circle cx="615" cy="698" r="34" fill="none" stroke="#a98f45" stroke-width="10"/><path d="M560 762 Q615 724 670 762" fill="none" stroke="#8f9087" stroke-width="8"/>
    <text x="450" y="822" font-family="Arial, sans-serif" font-size="24" fill="#25241f">old invented card paper</text>
  </g>
</svg>
